[Header]
FileType HTR
DataType HTRS
FileVersion 1
NumSegments 22
NumFrames 5
DataFrameRate 24
EulerRotationOrder ZYX
CalibrationUnits mm
RotationUnits Degrees
GlobalAxisofGravity Y
BoneLengthAxis Y
ScaleFactor 1.0
[SegmentNames&Hierarchy]
reference	GLOBAL
Hips	reference
Spine	Hips
Spine1	Spine
Neck	Spine1
Head	Neck
LeftShoulder	Spine1
LeftArm	LeftShoulder
LeftForeArm	LeftArm
LeftHand	LeftForeArm
RightShoulder	Spine1
RightArm	RightShoulder
RightForeArm	RightArm
RightHand	RightForeArm
LeftUpLeg	Hips
LeftLeg	LeftUpLeg
LeftFoot	LeftLeg
LeftToeBase	LeftFoot
RightUpLeg	Hips
RightLeg	RightUpLeg
RightFoot	RightLeg
RightToeBase	RightFoot
[BasePosition]
reference	0	0	0	0	0	0	1
Hips	0	0	0	0	0	0	1
Spine	0	0	0	-0	-90	0	1
Spine1	0	0	0	0	0	0	1
Neck	0	0	0	82.64767223	-82.64767223	-90	1
Head	0	0	0	-0	-90	0	1
LeftShoulder	0	0	0	0	0	0	1
LeftArm	0	0	0	0	0	0	1
LeftForeArm	0	0	0	0	0	0	1
LeftHand	0	0	0	0	0	0	1
RightShoulder	0	0	0	0	-0	180	1
RightArm	0	0	0	0	-0	180	1
RightForeArm	0	0	0	0	-0	180	1
RightHand	0	0	0	0	-0	180	1
LeftUpLeg	0	0	0	-0	90	0	1
LeftLeg	0	0	0	-0	90	0	1
LeftFoot	0	0	0	-23.42853957	23.42853957	-90	1
LeftToeBase	0	0	0	0	-0	-90	1
RightUpLeg	0	0	0	-0	90	0	1
RightLeg	0	0	0	-0	90	0	1
RightFoot	0	0	0	-23.42853957	23.42853957	-90	1
RightToeBase	0	0	0	0	-0	-90	1
[reference]
1	0	0	0	0	-0	0	1.0
2	0	0	0	0	-0	0	1.0
3	0	0	0	0	-0	0	1.0
4	0	0	0	0	-0	0	1.0
5	0	0	0	0	-0	0	1.0
[Hips]
1	5.636310101	0.3403699994	7.973899841	-0.2146836519	-1.350617528	-93.36096191	1.0
2	5.595108986	0.1995983571	7.961513996	0.06077272445	-0.9790676832	-93.26208496	1.0
3	5.487258434	-0.1537987441	7.897777557	0.2605525255	-0.003942996264	-93.2182312	1.0
4	5.385037422	-0.5425192118	7.836902142	0.6605813503	0.5866988301	-92.91833496	1.0
5	5.321069717	-0.8383200169	7.8276577	1.018347025	0.4611931443	-92.43228149	1.0
[Spine]
1	0	0	0.7457100153	-0.8023309112	88.44462585	5.837523937	1.0
2	0	0	0.7457100153	-4.553638935	88.21711731	2.325698137	1.0
3	0	0	0.7457100153	-10.94963741	87.72982788	-3.945883989	1.0
4	0	0	0.7457100153	-25.96248245	87.57116699	-18.96102715	1.0
5	0	0	0.7457100153	-50.6309967	87.63808441	-43.58703995	1.0
[Spine1]
1	0	0	2.140589952	8.270236969	2.305678129	0.1933546811	1.0
2	0	0	2.140589952	8.015572548	2.061970711	0.121927008	1.0
3	0	0	2.140589952	7.557301998	1.265478849	-0.0113133397	1.0
4	0	0	2.140589952	6.832894802	0.1567163467	-0.3006051481	1.0
5	0	0	2.140589952	6.745844841	-0.9331817031	-0.6316546798	1.0
[Neck]
1	0	0	2.32246995	-58.66663361	97.43099976	-45.5892334	1.0
2	0	0	2.32246995	-58.76319504	97.28540039	-45.61404419	1.0
3	0	0	2.32246995	-60.3152771	96.75938416	-46.82741547	1.0
4	0	0	2.32246995	-61.79878616	96.22518921	-47.91239166	1.0
5	0	0	2.32246995	-64.23179626	95.93276978	-49.33230591	1.0
[Head]
1	0	-0.1818799973	1.409579992	62.19243622	91.93096161	67.50390625	1.0
2	0	-0.1818799973	1.409579992	61.45948029	92.0664978	66.50931549	1.0
3	0	-0.1818799973	1.409579992	52.16410065	92.53599548	56.9874115	1.0
4	0	-0.1818799973	1.409579992	50.18166733	92.97621155	55.13625336	1.0
5	0	-0.1818799973	1.409579992	43.48420715	93.35246277	48.39135742	1.0
[LeftShoulder]
1	0.3668199778	0.02662999928	1.946700096	-18.09072685	1.325621843	-9.930692673	1.0
2	0.3668199778	0.02662999928	1.946700096	-17.60584831	1.763241887	-10.12424755	1.0
3	0.3668199778	0.02662999928	1.946700096	-17.08052826	2.135833025	-10.66129589	1.0
4	0.3668199778	0.02662999928	1.946700096	-16.68911362	2.542659283	-11.25204754	1.0
5	0.3668199778	0.02662999928	1.946700096	-16.59603882	2.818794012	-11.48919582	1.0
[LeftArm]
1	1.140689969	0	0	68.64683533	69.43211365	19.07341194	1.0
2	1.140689969	0	0	66.93145752	69.31153107	17.35629272	1.0
3	1.140689969	0	0	67.17182922	69.18473816	16.77606773	1.0
4	1.140689969	0	0	67.27183533	68.89735413	17.00862122	1.0
5	1.140689969	0	0	67.15972137	68.9377594	16.95975113	1.0
[LeftForeArm]
1	2.749800205	0	0	21.49388123	-11.89752674	-135.9795227	1.0
2	2.749800205	0	0	21.55372238	-11.81867599	-136.0500946	1.0
3	2.749800205	0	0	22.55400085	-12.54552937	-136.1867828	1.0
4	2.749800205	0	0	21.94810295	-12.59195709	-135.9955292	1.0
5	2.749800205	0	0	21.95252419	-12.77606392	-135.8841553	1.0
[LeftHand]
1	2.295179844	0	0	-7.055536747	-1.822344542	-22.55362701	1.0
2	2.295179844	0	0	-6.886791706	-1.723665476	-22.12116623	1.0
3	2.295179844	0	0	-7.782953739	-1.233717084	-22.24451828	1.0
4	2.295179844	0	0	-8.344520569	-1.295793056	-22.32185364	1.0
5	2.295179844	0	0	-8.716030121	-1.147268653	-22.30100632	1.0
[RightShoulder]
1	-0.3601199985	0.02662999928	1.946700096	-6.47423315	4.224730492	-175.5008545	1.0
2	-0.3601199985	0.02662999928	1.946700096	-6.762309074	4.363719463	-175.6925354	1.0
3	-0.3601199985	0.02662999928	1.946700096	-6.870686054	4.207642078	-175.8930969	1.0
4	-0.3601199985	0.02662999928	1.946700096	-6.385356903	3.806703091	-176.072525	1.0
5	-0.3601199985	0.02662999928	1.946700096	-6.531813622	4.026265621	-176.514267	1.0
[RightArm]
1	-1.140689969	0	0	-121.2797394	-105.5863342	-3.442047119	1.0
2	-1.140689969	0	0	-121.3921661	-105.6461945	-3.286998034	1.0
3	-1.140689969	0	0	-123.5413971	-106.0253448	-1.106146812	1.0
4	-1.140689969	0	0	-126.0550385	-106.5714722	1.54745841	1.0
5	-1.140689969	0	0	-126.9993439	-106.408577	2.56413269	1.0
[RightForeArm]
1	-2.749800205	0	0	48.87087631	23.06964111	-45.53034973	1.0
2	-2.749800205	0	0	49.05094528	23.19575119	-45.52180481	1.0
3	-2.749800205	0	0	49.48710632	23.2963295	-45.59939194	1.0
4	-2.749800205	0	0	48.79020691	22.82599258	-45.78420639	1.0
5	-2.749800205	0	0	47.5112648	22.16784286	-46.11824036	1.0
[RightHand]
1	-2.295179844	0	0	0.3083789647	17.83251953	-159.1432953	1.0
2	-2.295179844	0	0	0.3102415204	18.20253372	-159.055481	1.0
3	-2.295179844	0	0	0.6900141239	18.6882515	-159.2535553	1.0
4	-2.295179844	0	0	1.186189651	19.01879501	-159.3328094	1.0
5	-2.295179844	0	0	1.691025257	19.27958107	-159.0187073	1.0
[LeftUpLeg]
1	0.9094099998	0	0	-12.53398132	-113.6153641	5.511276245	1.0
2	0.9094099998	0	0	-15.08935356	-114.5114899	7.424955368	1.0
3	0.9094099998	0	0	-12.28097534	-114.2533112	3.219117165	1.0
4	0.9094099998	0	0	-4.990034103	-112.8879852	-6.614242077	1.0
5	0.9094099998	0	0	2.734130859	-110.6817856	-17.67530823	1.0
[LeftLeg]
1	0	0	-4.498080254	-56.4969902	-83.23454285	70.5680542	1.0
2	0	0	-4.498080254	-18.48584557	-83.29850006	34.97245789	1.0
3	0	0	-4.498080254	6.512063026	-80.94166565	15.77498531	1.0
4	0	0	-4.498080254	-1.326046944	-79.34809875	28.69927406	1.0
5	0	0	-4.498080254	-3.945850372	-81.58692932	37.5734787	1.0
[LeftFoot]
1	0	0	-3.729400158	-30.39074326	-6.301132202	105.1610794	1.0
2	0	0	-3.729400158	-33.49435806	4.290727615	105.9013062	1.0
3	0	0	-3.729400158	-41.45048523	9.476818085	102.7010651	1.0
4	0	0	-3.729400158	-49.27054596	5.123502731	98.98971558	1.0
5	0	0	-3.729400158	-50.85783768	3.206526279	94.85442352	1.0
[LeftToeBase]
1	0	-1.364109993	-0.5911099911	-9.999999975e-007	9.999999975e-007	9.999999975e-007	1.0
2	0	-1.364109993	-0.5911099911	-9.999999975e-007	9.999999975e-007	9.999999975e-007	1.0
3	0	-1.364109993	-0.5911099911	-9.999999975e-007	9.999999975e-007	9.999999975e-007	1.0
4	0	-1.364109993	-0.5911099911	-9.999999975e-007	9.999999975e-007	9.999999975e-007	1.0
5	0	-1.364109993	-0.5911099911	-9.999999975e-007	9.999999975e-007	9.999999975e-007	1.0
[RightUpLeg]
1	-0.9094099998	0	0	59.2131691	-76.42462921	-66.49201202	1.0
2	-0.9094099998	0	0	55.88321686	-76.36927795	-63.19825745	1.0
3	-0.9094099998	0	0	47.98597717	-76.26734161	-54.38041687	1.0
4	-0.9094099998	0	0	39.97068024	-75.14961243	-45.2688446	1.0
5	-0.9094099998	0	0	34.6721077	-73.51148224	-39.24162292	1.0
[RightLeg]
1	0	0	-4.498080254	4.495797157	-79.87852478	32.27967072	1.0
2	0	0	-4.498080254	5.006587982	-80.01728058	31.72801971	1.0
3	0	0	-4.498080254	13.3980999	-80.07872009	22.02409363	1.0
4	0	0	-4.498080254	19.04136086	-80.04396057	14.10248566	1.0
5	0	0	-4.498080254	20.27875519	-80.04878998	10.97603703	1.0
[RightFoot]
1	0	0	-3.729400158	-62.77014923	-35.57291412	104.0700073	1.0
2	0	0	-3.729400158	-63.18273163	-36.43601227	105.2672577	1.0
3	0	0	-3.729400158	-64.77017212	-37.55356598	109.1945724	1.0
4	0	0	-3.729400158	-65.24520874	-38.76629639	112.6268539	1.0
5	0	0	-3.729400158	-64.26390839	-40.10001373	114.7750168	1.0
[RightToeBase]
1	0	-1.364109993	-0.5911099911	-9.999999975e-007	0	3.000000106e-006	1.0
2	0	-1.364109993	-0.5911099911	-9.999999975e-007	0	3.000000106e-006	1.0
3	0	-1.364109993	-0.5911099911	-9.999999975e-007	0	3.000000106e-006	1.0
4	0	-1.364109993	-0.5911099911	-9.999999975e-007	0	3.000000106e-006	1.0
5	0	-1.364109993	-0.5911099911	-9.999999975e-007	0	3.000000106e-006	1.0
[EndOfFile]
